<svg width="82" height="35" viewBox="0 0 82 35" fill="none" xmlns="http://www.w3.org/2000/svg">
<path d="M5.2219 24.6674L2.56769 21.3896L0.881884 8.27844C2.09663 6.41192 6.38925 2.56961 13.8417 2.13257C23.1574 1.58627 30.2483 0.530775 40.9686 0.66735C51.6889 0.803925 43.021 1.53574 46.7919 1.53574C50.5627 1.53574 65.8355 1.12612 70.8435 3.17464C74.8499 4.81345 78.5596 7.95472 79.9136 9.32051C79.5228 9.59363 78.9863 10.4403 79.9661 11.6422C80.9459 12.8441 81.4905 14.6924 81.6403 15.4663C81.1214 15.9215 80.0859 16.9413 80.0958 17.3783C80.1082 17.9246 76.5388 18.0612 78.3405 18.7441C79.7818 19.2904 80.1751 20.8838 80.1916 21.6122C78.8177 22.295 75.4356 23.6881 72.8977 23.7974C70.3598 23.9066 68.1478 24.3892 67.3591 24.6168L67.3838 25.7095C68.5788 25.8916 70.7317 26.3103 69.784 26.5289C68.5994 26.802 67.3931 26.1191 66.41 26.5289C65.427 26.9386 64.0562 27.758 65.2532 28.0312C65.6247 28.2829 65.9855 28.4084 66.3075 28.4573C66.6998 28.3918 67.1246 28.3381 67.4425 28.3043C67.2413 28.4165 66.8243 28.5356 66.3075 28.4573C65.6413 28.5684 65.0688 28.7131 65.2717 28.8506C65.5942 29.0692 66.8718 29.3969 67.4703 29.5335L68.4812 30.353L65.3057 30.353C63.5592 30.353 63.935 31.1724 64.3412 31.5821C63.8801 31.6732 62.679 31.8007 61.5626 31.5821C60.1672 31.309 60.7718 31.7187 58.3933 31.8553C56.4905 31.9645 49.5295 31.9008 46.2868 31.8553C46.5473 31.6732 46.7111 31.309 45.2821 31.309L45.2821 31.309C43.4959 31.309 43.2974 31.309 41.1204 31.5821C38.9435 31.8553 43.6328 30.7137 36.8849 30.7137C31.4866 30.7137 32.1479 30.5401 31.1555 30.5401C28.0565 30.9953 20.7067 31.8785 16.0998 31.7692C10.3411 31.6327 5.34854 30.2669 5.34546 30.1303C5.34298 30.0211 4.2674 29.2654 3.72991 28.9012C4.26431 29.1288 5.33001 29.4475 5.31766 28.9012C5.3053 28.3549 4.21077 26.7615 3.66505 26.0331L5.2219 24.6674Z" fill="#FDA3C4"/>
<path d="M9.16885 32.4521C8.53375 32.4521 8.51965 32.9984 8.59198 33.2716L7.30503 33.4081C6.68685 33.8634 5.56894 34.7466 6.04279 34.6373C6.51664 34.528 7.4228 34.2276 7.81664 34.091C8.07715 33.9089 9.86835 33.5447 14.9491 33.5447C21.3001 33.5447 20.6985 33.2716 21.2939 33.2716C21.8893 33.2716 9.96272 32.4521 9.16885 32.4521Z" fill="#FDA3C4"/>
</svg>
