<svg width="83" height="35" viewBox="0 0 83 35" fill="none" xmlns="http://www.w3.org/2000/svg">
<path d="M5.79067 24.4065L2.51607 21.0463L0.701897 7.60559C2.28167 5.69216 7.79788 1.75329 17.2245 1.30527C29.0078 0.745242 13.0684 0.539122 26.6101 0.679129C40.1518 0.819136 46.4508 0.960181 51.2153 0.960181C55.9797 0.960181 63.2958 0.961852 69.574 3.06184C74.5966 4.74184 79.208 7.96206 80.8859 9.36217C80.3856 9.64215 79.6872 10.5101 80.8963 11.7422C82.1053 12.9743 82.7489 14.869 82.9195 15.6624C82.2529 16.1291 80.9201 17.1745 80.922 17.6225C80.9245 18.1825 76.4114 18.3225 78.6713 19.0226C80.4792 19.5826 80.9378 21.216 80.941 21.9627C79.1888 22.6628 74.8819 24.0908 71.6727 24.2028C68.4634 24.3148 65.6571 24.8095 64.6551 25.0429L64.66 26.163C66.1653 26.3497 68.8754 26.779 67.6728 27.003C66.1694 27.283 64.6618 26.583 63.4098 27.003C62.1579 27.423 62.4047 28.1928 63.9105 28.4728C64.2169 28.6435 64.3898 28.7621 64.4842 28.841C64.543 28.8347 64.6054 28.8288 64.6716 28.8231C64.6031 28.8537 64.5691 28.883 64.5548 28.9076C64.5116 28.9817 64.6482 29.0125 64.5548 28.9076C64.5388 28.8896 64.5159 28.8675 64.4842 28.841C63.5782 28.9376 63.5364 29.1025 63.9141 29.3128C64.3163 29.5368 63.9242 29.9431 64.6771 30.0831L67.933 30.8529H63.9209C61.7142 30.8529 62.1692 31.693 62.6726 32.113C62.0879 32.2063 60.5672 32.337 59.162 32.113C57.4054 31.833 58.1595 32.253 55.151 32.393C52.7442 32.505 53.9427 32.0883 49.8468 32.0417C50.1803 31.855 50.396 31.4816 48.5905 31.4816C46.3337 31.4816 48.0814 31.4114 45.3242 31.6914C42.5671 31.9714 53.2338 30.6375 44.7079 30.6375C37.8872 30.6375 39.6697 30.4267 38.4159 30.4267C34.4894 30.8934 25.1818 31.7987 19.3636 31.6867C12.091 31.5467 5.8158 30.1467 5.81519 30.0067C5.8147 29.8946 4.47391 29.1199 3.80358 28.7466C4.4733 28.9799 5.81212 29.3066 5.80967 28.7466C5.80722 28.1866 4.46268 26.5531 3.79071 25.8064L5.79067 24.4065Z" fill="#FDA3C4"/>
<path d="M10.5901 32.3868C9.78763 32.3868 9.75665 32.9468 9.84146 33.2268L8.21213 33.3668C7.42009 33.8335 5.98636 34.7389 6.5877 34.6269C7.18903 34.5149 8.34118 34.2069 8.84209 34.0669C9.17562 33.8802 11.4476 33.5068 17.867 33.5068C25.8914 33.5068 25.1379 33.2268 25.8902 33.2268C26.6424 33.2268 11.5931 32.3868 10.5901 32.3868Z" fill="#FDA3C4"/>
</svg>
