<svg width="111" height="34" viewBox="0 0 111 34" fill="none" xmlns="http://www.w3.org/2000/svg">
<path d="M5.68185 23.6937L2.37821 20.4092L0.603082 7.27136C2.2137 5.40104 7.82455 1.55092 17.383 1.11299C29.3311 0.565579 43.6212 -0.0541463 57.3485 0.0827062C71.0758 0.219559 45.5944 1.22145 50.4244 1.22145C55.2544 1.22145 90.9433 0.474284 97.2979 2.52696C102.382 4.1691 107.041 7.31677 108.735 8.68533C108.227 8.95901 107.515 9.80744 108.735 11.0117C109.954 12.216 110.598 14.0681 110.767 14.8436C110.089 15.2998 108.733 16.3216 108.733 16.7595C108.732 17.307 104.157 17.4438 106.444 18.1281C108.274 18.6755 108.731 20.2721 108.731 21.002C106.952 21.6862 102.579 23.0821 99.3247 23.1916C96.0708 23.3011 93.2235 23.7846 92.2066 24.0127L92.2062 25.1076C93.7314 25.2901 96.4767 25.7097 95.2565 25.9287C93.7311 26.2024 92.206 25.5181 90.9349 25.9287C89.6637 26.3392 87.8839 27.1603 89.4091 27.434C89.8775 27.6863 90.336 27.812 90.7471 27.861C91.2514 27.7954 91.7971 27.7416 92.2053 27.7078C91.9443 27.8202 91.4067 27.9395 90.7471 27.861C89.8905 27.9723 89.1529 28.1173 89.4088 28.2552C89.8155 28.4741 91.4423 28.8026 92.2049 28.9394L93.4757 29.7605H89.4083C87.1713 29.7605 91.6257 30.4309 92.134 30.8415C91.5408 30.9327 89.9986 31.0605 88.5751 30.8415C86.7957 30.5678 87.5582 30.9783 84.5076 31.1152C82.0672 31.2247 53.0412 31.6483 48.8891 31.6026C49.2281 31.4202 49.4485 31.0552 47.6182 31.0552C45.9731 31.0552 55.7122 30.7209 60.2753 30.6348C58.8928 30.4202 57.2719 29.9089 51.2324 29.9089C44.3179 29.9089 39.9983 29.5783 38.7273 29.5783C34.7445 30.0344 25.3045 30.9194 19.4069 30.8099C12.0348 30.6731 5.68 29.3045 5.68004 29.1677C5.68008 29.0582 4.32454 28.301 3.64677 27.936C4.32458 28.1641 5.68027 28.4834 5.68045 27.936C5.68063 27.3886 4.32537 25.792 3.64772 25.0621L5.68185 23.6937Z" fill="#FDA3C4"/>
<path d="M10.5093 31.4942C9.69579 31.4942 9.66172 32.0416 9.74637 32.3153L8.09395 32.4522C7.2888 32.9083 5.83104 33.7933 6.44118 33.6838C7.05132 33.5744 8.22079 33.2733 8.72925 33.1364C9.06826 32.954 11.3732 32.589 17.881 32.589C26.0157 32.589 25.2532 32.3153 26.0158 32.3153C26.7785 32.3153 11.5261 31.4942 10.5093 31.4942Z" fill="#FDA3C4"/>
</svg>
