<svg width="94" height="35" viewBox="0 0 94 35" fill="none" xmlns="http://www.w3.org/2000/svg">
<path d="M4.90548 24.5403L1.6577 21.2508L0.0142544 8.09271C1.62867 6.21951 7.22891 2.36346 16.7146 1.92486C28.5717 1.3766 32.7107 0.433019 46.3266 0.570082C59.9425 0.707146 53.3221 0.85565 58.1134 0.85565C62.9046 0.85565 74.2186 0.734503 80.5039 2.79034C85.532 4.43502 90.126 7.58753 91.7945 8.9582C91.2876 9.2323 90.5736 10.082 91.7729 11.2882C92.9722 12.4944 93.5938 14.3493 93.7547 15.126C93.0781 15.5828 91.7237 16.6063 91.7196 17.0449C91.7146 17.5931 87.1742 17.7302 89.4374 18.4155C91.248 18.9637 91.6871 20.5628 91.6803 21.2938C89.9088 21.9791 85.5585 23.3772 82.3297 23.4868C79.1009 23.5965 76.2721 24.0808 75.2613 24.3092L75.2512 25.4058C76.7625 25.5885 79.4821 26.0088 78.2696 26.2281C76.7541 26.5022 75.2474 25.8169 73.9827 26.2281C72.7181 26.6393 70.9453 27.4617 72.4558 27.7358C72.9182 27.9884 73.3718 28.1144 73.7792 28.1634C74.2801 28.0977 74.8218 28.0438 75.2271 28.0099C74.9672 28.1225 74.4328 28.242 73.7792 28.1634C72.9285 28.2749 72.1955 28.4202 72.4482 28.5582C72.8496 28.7775 74.4605 29.1064 75.2157 29.2435L76.4689 30.0659H72.4342C70.2151 30.0659 70.6614 30.8883 71.1619 31.2995C70.5727 31.3908 69.0417 31.5188 67.6316 31.2995C65.8689 31.0253 66.6217 31.4365 63.5943 31.5736C61.1725 31.6832 60.4371 31.3293 56.3188 31.2837C56.6567 31.1009 64.8742 30.4674 63.0585 30.4674H63.0585C60.789 30.4674 60.5368 30.4674 57.7604 30.7415C54.984 31.0156 48.5693 30.724 39.9955 30.724C33.1364 30.724 38.894 30.434 37.6331 30.434C33.6782 30.8909 24.3061 31.7772 18.4567 31.6675C11.1451 31.5305 4.85348 30.1598 4.85475 30.0228C4.85576 29.9131 3.51787 29.1547 2.8488 28.7892C3.51914 29.0177 4.86109 29.3375 4.86616 28.7892C4.87124 28.241 3.54112 26.6419 2.87543 25.9109L4.90548 24.5403Z" fill="#FDA3C4"/>
<path d="M9.62443 32.3529C8.81748 32.3529 8.77879 32.9011 8.86031 33.1752L7.21993 33.3123C6.41716 33.7692 4.96318 34.6555 5.56941 34.5459C6.17563 34.4362 7.33841 34.1347 7.84401 33.9976C8.18193 33.8149 10.4717 33.4494 16.9272 33.4494C24.9967 33.4494 24.2427 33.1752 24.9992 33.1752C25.7557 33.1752 10.6331 32.3529 9.62443 32.3529Z" fill="#FDA3C4"/>
</svg>
