<svg width="82" height="35" viewBox="0 0 82 35" fill="none" xmlns="http://www.w3.org/2000/svg">
<path d="M5.58739 24.5636L2.26148 21.2123L0.344404 7.80734C1.9262 5.89899 7.46709 1.97059 16.9763 1.52376C28.8629 0.965221 14.0453 0.837214 27.7107 0.976849C41.3761 1.11648 45.8065 1.35846 50.6142 1.35846C55.4219 1.35846 61.9129 1.46331 68.2616 3.55772C73.3405 5.23325 78.0144 8.44492 79.7165 9.84131C79.2135 10.1205 78.5144 10.9862 79.7423 12.215C80.9703 13.4438 81.6318 15.3335 81.8091 16.1248C81.1394 16.5903 79.8013 17.6329 79.8061 18.0797C79.8122 18.6382 75.2591 18.7779 77.544 19.476C79.3719 20.0346 79.8451 21.6637 79.8532 22.4084C78.0896 23.1066 73.7529 24.5308 70.5152 24.6425C67.2776 24.7543 64.449 25.2476 63.4394 25.4804L63.4515 26.5975C64.9718 26.7837 67.7092 27.2118 66.4971 27.4352C64.9819 27.7145 63.4561 27.0163 62.1955 27.4352C60.9349 27.8542 59.1727 28.692 60.694 28.9712C61.1631 29.2286 61.6209 29.3569 62.0306 29.4068C62.5319 29.34 63.0744 29.285 63.4804 29.2505C63.2218 29.3652 62.6881 29.487 62.0306 29.4068C61.1793 29.5204 60.4467 29.6684 60.7031 29.809C61.1104 30.0324 62.7334 30.3676 63.4941 30.5072L64.7683 31.345H60.7198C58.766 31.345 62.7301 31.8219 64.076 32.2218C65.3245 32.2438 66.1533 32.2983 64.8683 32.3574C64.745 32.363 64.6051 32.3683 64.45 32.3731C64.4548 32.3765 64.4593 32.38 64.4635 32.3834C63.9052 32.4716 62.4997 32.5931 61.1465 32.4158C57.4509 32.4309 52.3011 32.3897 49.4332 32.3574C49.7686 32.1712 49.9838 31.7988 48.162 31.7988H48.1619C45.8847 31.7988 45.6316 31.7988 42.8513 32.0781C40.0709 32.3574 40.5663 31.3149 31.9632 31.3149C30.9035 31.3149 30.2615 31.3013 29.929 31.2784C26.7754 31.6136 23.155 31.8973 19.3303 31.8245C11.9907 31.6849 5.64967 30.2885 5.64815 30.1489C5.64693 30.0372 4.28901 29.2645 3.6102 28.8922C4.28749 29.1249 5.64055 29.4507 5.63448 28.8922C5.6284 28.3336 4.26116 26.7045 3.5783 25.9598L5.58739 24.5636Z" fill="#FDA3C4"/>
<path d="M10.4816 32.5227C9.67192 32.5227 9.64426 33.0812 9.73164 33.3605L8.08843 33.5001C7.29222 33.9656 5.85131 34.8686 6.45738 34.7569C7.06345 34.6451 8.22407 34.3379 8.72862 34.1983C9.06397 34.0121 11.3541 33.6398 17.8318 33.6398C25.9289 33.6398 21.1706 33.5352 21.9297 33.5352C22.6888 33.5352 11.4938 32.5227 10.4816 32.5227Z" fill="#FDA3C4"/>
</svg>
