<svg width="122" height="34" viewBox="0 0 122 34" fill="none" xmlns="http://www.w3.org/2000/svg">
<path d="M7.42402 24.0742L2.60643 20.8139L0.0186236 7.77286C2.36757 5.91632 10.5503 2.09456 24.4898 1.65986C41.9141 1.11648 42.6753 -0.106119 62.6943 0.0297252C82.7132 0.16557 73.2308 0.0332486 80.2746 0.0332486C87.3183 0.0332486 97.8642 -0.374174 107.131 1.66338C114.545 3.29343 116.34 6.4179 118.81 7.77639C118.069 8.04805 117.03 8.89023 118.809 10.0857C120.588 11.2811 121.526 13.1195 121.773 13.8893C120.784 14.3421 118.806 15.3564 118.806 15.7911C118.806 16.3345 112.132 16.4704 115.469 17.1496C118.138 17.693 118.804 19.2778 118.804 20.0023C116.208 20.6815 114.831 22.0671 110.086 22.1758C105.34 22.2845 101.188 22.7645 99.7048 22.9909L99.7042 24.0777C101.928 24.2588 105.932 24.6754 104.152 24.8927C101.928 25.1644 99.704 24.4852 97.8502 24.8927C95.9963 25.3002 93.4008 26.1153 95.625 26.387C96.3081 26.6374 96.9767 26.7622 97.5762 26.8108C98.3117 26.7457 99.1074 26.6923 99.7028 26.6587C99.3221 26.7703 98.5381 26.8887 97.5762 26.8108C96.327 26.9213 95.2513 27.0653 95.6245 27.2021C96.2176 27.4194 98.59 27.7454 99.7021 27.8813L101.555 28.6964L95.6237 28.6964C92.3613 28.6964 93.0282 29.5114 93.7694 29.919C92.9043 30.0095 90.6552 30.1363 88.5793 29.919C85.9844 29.6473 87.0963 30.0548 82.6475 30.1906C81.7364 30.2185 81.3862 30.235 81.2679 30.2435C81.1198 30.2541 81.3352 30.252 81.2679 30.2435C81.1791 30.2322 80.5972 30.2098 78.0334 30.1906C78.5278 30.0095 78.8493 29.6473 76.1801 29.6473H76.18C72.8436 29.6473 72.4728 29.6473 68.3948 29.919C68.3161 29.9242 68.2434 29.9292 68.1764 29.9341C65.3434 30.1389 72.7466 29.9898 68.1764 29.9341C67.2565 29.9229 65.8515 29.9154 63.7803 29.9154L45.6148 29.9154C39.8066 30.3683 36.0399 31.2467 27.4392 31.138C16.6882 31.0022 7.42092 29.6437 7.421 29.5079C7.42106 29.3992 5.44428 28.6476 4.45589 28.2853C5.44436 28.5117 7.42137 28.8287 7.42168 28.2853C7.42198 27.7419 5.44567 26.1571 4.45748 25.4326L7.42402 24.0742Z" fill="#FDA3C4"/>
<path d="M14.4635 31.8173C13.2771 31.8173 13.2274 32.3606 13.3508 32.6323L10.9411 32.7682C9.76685 33.221 7.64087 34.0994 8.53067 33.9908C9.42047 33.8821 11.126 33.5832 11.8675 33.4474C12.3619 33.2663 15.7233 32.904 25.2138 32.904C37.077 32.904 35.965 32.6323 37.0771 32.6323C38.1893 32.6323 15.9464 31.8173 14.4635 31.8173Z" fill="#FDA3C4"/>
</svg>
