<svg width="134" height="56" viewBox="0 0 134 56" fill="none" xmlns="http://www.w3.org/2000/svg">
<path d="M6.00912 39.3897L2.72625 34.1417L0.879022 13.1495C2.45409 10.161 7.96061 4.00912 17.3862 3.30938C29.1681 2.43471 43.2021 0.466687 56.7441 0.685356C70.2862 0.904025 84.5786 0.685356 89.343 0.685356C94.1075 0.685356 113.413 0.0295283 119.697 3.30938C124.723 5.93327 129.343 10.9627 131.024 13.1495C130.524 13.5868 129.828 14.9424 131.04 16.8667C132.252 18.791 132.9 21.7503 133.073 22.9894C132.408 23.7183 131.077 25.3511 131.08 26.0508C131.084 26.9255 126.571 27.1442 128.833 28.2375C130.642 29.1122 131.105 31.6633 131.11 32.8295C129.36 33.9229 125.056 36.1533 121.847 36.3282C118.638 36.5032 115.833 37.2758 114.832 37.6403L114.839 39.3897C116.345 39.6813 119.056 40.3518 117.854 40.7016C116.352 41.139 114.842 40.0456 113.591 40.7016C112.34 41.3576 110.591 42.6696 112.097 43.107C112.561 43.51 113.014 43.711 113.42 43.7892C113.917 43.6844 114.455 43.5983 114.858 43.5443C114.601 43.7239 114.071 43.9146 113.42 43.7892C112.576 43.967 111.849 44.1988 112.103 44.419C112.506 44.7689 114.113 45.2937 114.866 45.5123L116.126 46.8244H112.113C109.907 46.8244 110.364 48.1364 110.868 48.7924C110.284 48.9381 108.763 49.1422 107.358 48.7924C105.6 48.355 106.356 49.011 103.347 49.2297C100.941 49.4046 92.1471 49.3026 88.051 49.2297C88.3841 48.9381 88.5988 48.355 86.7934 48.355C84.5365 48.355 84.2857 48.355 81.5293 48.7924C78.7728 49.2297 59.4623 48.7924 50.9365 48.7924H38.6492C34.7238 49.5213 25.4184 50.9353 19.6 50.7604C12.327 50.5417 6.04837 48.355 6.04741 48.1364C6.04665 47.9614 4.70396 46.7515 4.03271 46.1683C4.703 46.5328 6.04263 47.043 6.0388 46.1683C6.03497 45.2937 4.68641 42.7425 4.01261 41.5763L6.00912 39.3897Z" fill="#FDA3C4"/>
<path d="M10.8281 51.8537C10.0257 51.8537 9.9961 52.7284 10.0816 53.1658L8.45262 53.3844C7.66173 54.1133 6.23023 55.5274 6.83129 55.3524C7.43235 55.1775 8.58374 54.6964 9.08431 54.4778C9.41738 54.1862 11.6884 53.6031 18.1079 53.6031C26.1322 53.6031 25.378 53.1658 26.1303 53.1658C26.8826 53.1658 11.8312 51.8537 10.8281 51.8537Z" fill="#FDA3C4"/>
</svg>
