<svg width="111" height="45" viewBox="0 0 111 45" fill="none" xmlns="http://www.w3.org/2000/svg">
<path d="M4.3393 31.3473L1.60735 27.1286L0.0723744 10.2538C1.38381 7.85152 5.9681 2.90627 13.8138 2.34378C23.621 1.64066 35.3029 0.0586501 46.575 0.234429C57.8471 0.410208 69.7439 0.234429 73.7097 0.234429C77.6756 0.234429 93.7454 -0.292764 98.9751 2.34378C103.159 4.45301 107.003 8.49599 108.403 10.2538C107.987 10.6053 107.407 11.6951 108.416 13.242C109.424 14.7888 109.963 17.1677 110.107 18.1638C109.553 18.7497 108.445 20.0622 108.448 20.6247C108.451 21.3278 104.695 21.5036 106.577 22.3825C108.083 23.0856 108.468 25.1363 108.472 26.0738C107.015 26.9527 103.432 28.7457 100.761 28.8863C98.0901 29.0269 95.755 29.648 94.9214 29.941L94.9275 31.3473C96.1809 31.5816 98.4376 32.1206 97.4369 32.4019C96.1861 32.7534 94.9298 31.8745 93.8885 32.4019C92.8472 32.9292 91.3907 33.9839 92.6446 34.3354C93.0307 34.6594 93.4079 34.821 93.7457 34.8838C94.1594 34.7996 94.6071 34.7304 94.9422 34.687C94.7285 34.8314 94.2877 34.9847 93.7457 34.8838C93.043 35.0268 92.4382 35.2131 92.6492 35.3901C92.9844 35.6713 94.3221 36.0932 94.9491 36.269L95.9973 37.3237H92.6577C90.8209 37.3237 91.2012 38.3783 91.621 38.9057C91.1344 39.0229 89.8689 39.1869 88.6988 38.9057C87.2361 38.5541 87.8646 39.0815 85.3606 39.2572C83.3575 39.3979 76.0377 39.3158 72.6282 39.2572C72.9055 39.0229 73.0843 38.5541 71.5815 38.5541C69.7029 38.5541 69.4942 38.5541 67.1997 38.9057C64.9052 39.2572 48.8316 38.9057 41.7348 38.9057H31.5071C28.2396 39.4916 20.4938 40.6283 15.6507 40.4877C9.59676 40.3119 4.37085 38.5541 4.37008 38.3783C4.36946 38.2377 3.25199 37.2651 2.69332 36.7963C3.25122 37.0893 4.36623 37.4995 4.36315 36.7963C4.36007 36.0932 3.23788 34.0425 2.67716 33.105L4.3393 31.3473Z" fill="#FDA3C4"/>
<path d="M8.34901 41.3666C7.68107 41.3666 7.65632 42.0697 7.72744 42.4213L6.37147 42.597C5.71306 43.183 4.52133 44.3197 5.02166 44.1791C5.52199 44.0384 6.48045 43.6517 6.89714 43.4759C7.17442 43.2416 9.06484 42.7728 14.4083 42.7728C21.0876 42.7728 20.4599 42.4213 21.0861 42.4213C21.7123 42.4213 9.18392 41.3666 8.34901 41.3666Z" fill="#FDA3C4"/>
</svg>
