<svg width="91" height="45" viewBox="0 0 91 45" fill="none" xmlns="http://www.w3.org/2000/svg">
<path d="M4.24747 31.657L1.93197 27.4394L0.354964 10.5687C1.38224 8.16701 5.03892 3.22298 11.4475 2.66063C19.4581 1.95769 28.9859 0.376066 38.2119 0.551801C47.4379 0.727537 57.1683 0.551801 60.413 0.551801C63.6578 0.551801 76.7958 0.0247379 81.1249 2.66063C84.5881 4.76934 87.8105 8.81133 88.9887 10.5687C88.6551 10.9202 88.2016 12.0097 89.0563 13.5561C89.911 15.1026 90.3974 17.4809 90.5338 18.4767C90.0917 19.0625 89.2105 20.3747 89.2232 20.937C89.2391 21.64 86.1691 21.8157 87.726 22.6944C88.9715 23.3973 89.3252 25.4476 89.3464 26.3848C88.1709 27.2635 85.274 29.056 83.0913 29.1966C80.9085 29.3372 79.0098 29.9581 78.3333 30.251L78.3651 31.657C79.3951 31.8913 81.2517 32.4301 80.4383 32.7113C79.4216 33.0628 78.377 32.1841 77.5351 32.7113C76.6931 33.2385 75.5215 34.2929 76.5541 34.6444C76.8762 34.9683 77.1879 35.1298 77.4655 35.1927C77.8024 35.1085 78.1673 35.0393 78.4406 34.9959C78.2685 35.1402 77.9109 35.2935 77.4655 35.1927C76.8933 35.3356 76.402 35.5219 76.578 35.6988C76.8576 35.98 77.9601 36.4018 78.4764 36.5775L79.3541 37.6319H76.6217C75.1188 37.6319 75.4501 38.6863 75.8036 39.2135C75.4077 39.3307 74.3754 39.4947 73.4127 39.2135C72.2093 38.8621 72.7335 39.3893 70.6882 39.565C69.0519 39.7056 63.0614 39.6236 60.2707 39.565C60.4931 39.3307 60.6305 38.8621 59.4009 38.8621C57.8639 38.8621 57.6932 38.8621 55.8225 39.2135C53.9519 39.565 40.7941 39.2135 34.9876 39.2135H26.6195C23.9572 39.7993 17.6414 40.9357 13.6762 40.7952C8.71962 40.6194 4.41042 38.8621 4.40645 38.6863C4.40327 38.5457 3.47046 37.5733 3.00445 37.1047C3.46649 37.3976 4.38658 37.8077 4.37068 37.1047C4.35478 36.4018 3.39759 34.3515 2.92099 33.4143L4.24747 31.657Z" fill="#FDA3C4"/>
<path d="M7.7188 41.6738C7.17231 41.6738 7.16544 42.3768 7.23031 42.7283L6.12423 42.904C5.59668 43.4898 4.64326 44.6262 5.04994 44.4856C5.45663 44.345 6.23347 43.9584 6.57105 43.7827C6.79345 43.5484 8.33124 43.0797 12.7032 43.0797C18.1681 43.0797 17.6478 42.7283 18.1601 42.7283C18.6724 42.7283 8.40191 41.6738 7.7188 41.6738Z" fill="#FDA3C4"/>
</svg>
