<svg width="142" height="45" viewBox="0 0 142 45" fill="none" xmlns="http://www.w3.org/2000/svg">
<path d="M5.18961 31.8239L1.88627 27.6131L0.11237 10.7699C1.72316 8.37212 7.33437 3.43613 16.8929 2.87469C28.841 2.1729 63.117 0.48078 76.8443 0.65623C90.5716 0.83168 75.083 1.66395 79.913 1.66395C84.743 1.66395 121.431 0.588184 127.786 3.21979C132.869 5.32507 137.528 9.36048 139.223 11.115C138.714 11.4659 138.002 12.5536 139.222 14.0976C140.441 15.6415 141.084 18.0159 141.254 19.0102C140.575 19.595 139.219 20.905 139.219 21.4665C139.219 22.1683 134.643 22.3437 136.931 23.221C138.761 23.9228 139.218 25.9697 139.217 26.9054C137.438 27.7827 133.065 29.5722 129.811 29.7126C126.557 29.853 123.709 30.4729 122.692 30.7653L122.692 32.169C124.217 32.4029 126.962 32.9409 125.742 33.2216C124.217 33.5725 122.692 32.6952 121.42 33.2216C120.149 33.7479 118.369 34.8006 119.895 35.1515C120.363 35.4749 120.821 35.6362 121.233 35.6989C121.737 35.6148 122.283 35.5458 122.691 35.5024C122.43 35.6466 121.892 35.7996 121.233 35.6989C120.376 35.8416 119.638 36.0276 119.894 36.2042C120.301 36.485 121.928 36.906 122.69 37.0815L123.961 38.1342H119.894C117.657 38.1342 118.114 39.1869 118.622 39.7132C118.029 39.8302 116.487 39.994 115.063 39.7132C113.284 39.3623 114.046 39.8887 110.996 40.0641C108.555 40.2045 92.5198 40.2954 88.3678 40.2369C88.7068 40.003 88.9273 39.5351 87.0969 39.5351H87.0969C84.809 39.5351 84.5548 39.5351 81.7584 39.886C78.962 40.2369 69.3757 39.3089 60.7325 39.3089C53.818 39.3089 39.5055 39.3681 38.2345 39.3681C34.2516 39.953 24.8116 41.0876 18.9139 40.9472C11.5419 40.7717 5.18723 39.0172 5.18728 38.8418C5.18733 38.7014 3.83186 37.7306 3.15412 37.2628C3.83192 37.5552 5.18757 37.9645 5.18781 37.2628C5.18804 36.561 3.83293 34.514 3.15534 33.5783L5.18961 31.8239Z" fill="#FDA3C4"/>
<path d="M10.0163 41.8244C9.20282 41.8244 9.16869 42.5263 9.25331 42.8771L7.60089 43.0526C6.79569 43.6374 5.33785 44.772 5.948 44.6316C6.55815 44.4913 7.72764 44.1053 8.23612 43.9298C8.57515 43.6959 10.8801 43.228 17.3879 43.228C25.5227 43.228 24.7601 42.8771 25.5228 42.8771C26.2854 42.8771 11.0331 41.8244 10.0163 41.8244Z" fill="#FDA3C4"/>
</svg>
