<svg width="129" height="45" viewBox="0 0 129 45" fill="none" xmlns="http://www.w3.org/2000/svg">
<path d="M5.03916 32.1041L1.79962 27.9234L0.189166 11.2003C1.80827 8.81955 7.41818 3.91875 16.905 3.36132C28.7634 2.66452 42.8995 1.09673 56.5151 1.27093C57.1364 1.27888 57.6885 1.28624 58.1768 1.29305C69.9653 1.05736 110.042 0.0576851 115.663 2.3962C120.687 4.48648 125.273 8.49312 126.938 10.2352C126.43 10.5835 125.714 11.6635 126.911 13.1964C128.107 14.7294 128.724 17.0869 128.883 18.074C128.205 18.6547 126.848 19.9553 126.843 20.5128C126.836 21.2096 122.296 21.3838 124.557 22.2548C126.366 22.9516 126.802 24.9839 126.793 25.913C125.02 26.784 120.666 28.5608 117.437 28.7001C114.208 28.8395 111.378 29.455 110.366 29.7453L110.353 31.139C111.864 31.3713 114.583 31.9054 113.37 32.1841C111.854 32.5325 110.349 31.6615 109.083 32.1841C107.817 32.7067 106.042 33.7519 107.552 34.1003C108.014 34.4213 108.467 34.5815 108.875 34.6437C109.376 34.5603 109.918 34.4917 110.323 34.4487C110.063 34.5918 109.528 34.7437 108.875 34.6437C108.024 34.7855 107.29 34.9701 107.543 35.1455C107.943 35.4242 109.553 35.8423 110.308 36.0165L111.56 37.0617L107.525 37.0617C105.306 37.0617 105.75 38.1069 106.249 38.6295C105.66 38.7456 104.129 38.9082 102.719 38.6295C100.957 38.2811 101.709 38.8037 98.6812 38.9779C96.259 39.1172 57.5448 40.068 53.4265 40.0099C53.7649 39.7776 53.9877 39.3131 52.1721 39.3131C50.0583 39.3131 49.6945 39.3131 47.4108 39.5946L50.1084 39.5946C58.6822 39.5946 44.0962 40.0099 46.8733 39.6615C47.0639 39.6376 47.2425 39.6153 47.4108 39.5946L37.752 39.5946C33.796 40.1753 24.4216 41.3017 18.5725 41.1624C11.2612 40.9882 4.97307 39.2462 4.97468 39.072C4.97597 38.9326 3.63998 37.9687 2.97183 37.5042C3.64159 37.7945 4.98274 38.201 4.98919 37.5042C4.99564 36.8074 3.66953 34.7751 3.00567 33.846L5.03916 32.1041Z" fill="#FDA3C4"/>
<path d="M9.73852 42.0334C8.93157 42.0334 8.89151 42.7302 8.97234 43.0786L7.33162 43.2528C6.52771 43.8334 5.07151 44.9599 5.678 44.8206C6.2845 44.6812 7.44803 44.298 7.95399 44.1238C8.29236 43.8915 10.583 43.427 17.0386 43.427C25.108 43.427 24.3547 43.0786 25.1112 43.0786C25.8678 43.0786 10.7472 42.0334 9.73852 42.0334Z" fill="#FDA3C4"/>
</svg>
