<svg width="111" height="45" viewBox="0 0 111 45" fill="none" xmlns="http://www.w3.org/2000/svg">
<path d="M4.59503 32.0079L1.83567 27.7894L0.191004 10.9154C1.48682 8.51324 6.03897 3.56824 13.881 3.00578C23.6836 2.3027 35.3552 0.720766 46.6285 0.896536C57.9018 1.07231 69.7974 0.896536 73.7632 0.896536C77.7291 0.896536 93.7954 0.369369 99.0423 3.00578C103.24 5.11491 107.111 9.15769 108.521 10.9154C108.108 11.2669 107.535 12.3566 108.554 13.9034C109.572 15.4502 110.127 17.829 110.277 18.825C109.727 19.4109 108.628 20.7233 108.634 21.2858C108.642 21.9889 104.886 22.1646 106.775 23.0435C108.285 23.7466 108.683 25.7972 108.693 26.7346C107.242 27.6135 103.671 29.4064 101.001 29.547C98.3307 29.6876 95.9997 30.3086 95.168 30.6016L95.1833 32.0079C96.4382 32.2422 98.6983 32.7811 97.6995 33.0624C96.4509 33.4139 95.189 32.5351 94.1511 33.0624C93.1132 33.5897 91.6636 34.6443 92.9198 34.9958C93.308 35.3198 93.6862 35.4813 94.0244 35.5442C94.4376 35.46 94.8849 35.3908 95.2196 35.3474C95.0069 35.4918 94.5671 35.645 94.0244 35.5442C93.3227 35.6872 92.7191 35.8735 92.9312 36.0505C93.2683 36.3317 94.6087 36.7535 95.2368 36.9293L96.2919 37.9839H92.9523C91.1155 37.9839 91.5026 39.0386 91.9258 39.5659C91.4401 39.6831 90.1756 39.8471 89.0036 39.5659C87.5387 39.2143 88.1706 39.7416 85.6678 39.9174C83.6655 40.058 76.3452 39.976 72.9353 39.9174C73.2111 39.6831 73.3869 39.2143 71.8841 39.2143C70.0055 39.2143 69.7968 39.2143 67.5046 39.5659C65.2124 39.9174 49.1365 39.5659 42.0397 39.5659H31.812C28.5483 40.1518 20.8098 41.2884 15.9658 41.1478C9.91077 40.972 4.67343 39.2143 4.67152 39.0386C4.66999 38.8979 3.54619 37.9254 2.98448 37.4566C3.54428 37.7496 4.66196 38.1597 4.65431 37.4566C4.64666 36.7535 3.51113 34.7029 2.94433 33.7655L4.59503 32.0079Z" fill="#FDA3C4"/>
<path d="M8.66987 42.0267C8.00194 42.0267 7.98176 42.7297 8.05516 43.0813L6.70033 43.257C6.04573 43.8429 4.86139 44.9796 5.36081 44.839C5.86023 44.6984 6.81617 44.3117 7.23172 44.1359C7.50747 43.9015 9.39484 43.4328 14.7383 43.4328C21.4176 43.4328 20.7876 43.0813 21.4138 43.0813C22.04 43.0813 9.50479 42.0267 8.66987 42.0267Z" fill="#FDA3C4"/>
</svg>
