<svg width="171" height="45" viewBox="0 0 171 45" fill="none" xmlns="http://www.w3.org/2000/svg">
<path d="M7.026 32.162L2.95604 27.9734L0.772586 11.219C2.75785 8.83386 9.67304 3.9239 21.4517 3.36542C36.175 2.66732 53.7181 1.09659 70.6336 1.27112C87.5492 1.44564 110.32 0.956778 116.272 0.956778C122.224 0.956778 146.345 0.433347 154.175 3.05108C160.439 5.14526 166.179 9.1594 168.267 10.9047C167.64 11.2537 166.762 12.3357 168.265 13.8715C169.768 15.4073 170.56 17.7692 170.768 18.7582C169.933 19.34 168.261 20.6431 168.261 21.2015C168.261 21.8996 162.622 22.0742 165.441 22.9468C167.696 23.6449 168.259 25.681 168.258 26.6118C166.065 27.4844 160.676 29.2646 156.666 29.4042C152.656 29.5438 149.148 30.1605 147.894 30.4514L147.894 31.8477C149.773 32.0803 153.156 32.6155 151.652 32.8947C149.772 33.2438 147.893 32.3711 146.327 32.8947C144.76 33.4183 142.567 34.4654 144.446 34.8145C145.023 35.1361 145.588 35.2965 146.095 35.3589C146.716 35.2753 147.389 35.2067 147.892 35.1635C147.57 35.3069 146.908 35.4591 146.095 35.3589C145.039 35.5009 144.13 35.6859 144.446 35.8616C144.947 36.1409 146.951 36.5597 147.891 36.7343L149.457 37.7814H144.445C141.688 37.7814 142.251 38.8286 142.877 39.3521C142.146 39.4685 140.246 39.6314 138.492 39.3521C136.299 39.0031 137.239 39.5266 133.48 39.7012C130.472 39.8408 119.488 39.7593 114.371 39.7012C114.789 39.4685 115.061 39.0031 112.805 39.0031C109.986 39.0031 109.673 39.0031 106.227 39.3521C102.781 39.7012 73.7448 39.6665 63.0942 39.6665H47.7448C42.8368 40.2482 31.204 41.3768 23.9366 41.2372C14.8524 41.0627 7.02202 39.3174 7.02212 39.1429C7.02219 39.0033 5.35205 38.0376 4.51696 37.5722C5.35214 37.863 7.0226 38.2703 7.02299 37.5722C7.02338 36.8741 5.35383 34.8379 4.519 33.9072L7.026 32.162Z" fill="#FDA3C4"/>
<path d="M12.9723 42.1098C11.9699 42.1098 11.9277 42.8079 12.0319 43.157L9.99569 43.3315C9.0034 43.9132 7.20678 45.0418 7.95867 44.9022C8.71056 44.7626 10.1517 44.3786 10.7783 44.2041C11.1961 43.9714 14.0366 43.506 22.0559 43.506C32.08 43.506 31.1404 43.157 32.0802 43.157C33.0199 43.157 14.2253 42.1098 12.9723 42.1098Z" fill="#FDA3C4"/>
</svg>
