<svg width="164" height="56" viewBox="0 0 164 56" fill="none" xmlns="http://www.w3.org/2000/svg">
<path d="M5.72875 39.758L2.49851 34.573L0.925224 13.8328C2.54962 10.8802 8.17042 4.80224 17.6584 4.1109C29.5184 3.24673 43.658 1.30235 57.2732 1.51839C70.8884 1.73443 85.2641 1.51839 90.0553 1.51839C94.8466 1.51839 144.144 -0.409485 150.419 2.83098C155.438 5.42336 160.015 10.3924 161.676 12.5529C161.168 12.985 160.449 14.3243 161.642 16.2255C162.835 18.1267 163.447 21.0505 163.604 22.2747C162.925 22.9949 161.565 24.608 161.558 25.2993C161.55 26.1635 157.009 26.3795 159.269 27.4597C161.076 28.3239 161.507 30.8444 161.496 31.9966C159.721 33.0769 155.363 35.2805 152.134 35.4533C148.905 35.6262 146.073 36.3895 145.061 36.7496L145.045 38.4781C146.556 38.7661 149.273 39.4285 148.059 39.7742C146.542 40.2063 145.039 39.126 143.772 39.7742C142.506 40.4223 140.728 41.7186 142.237 42.1506C142.698 42.5488 143.151 42.7474 143.559 42.8246C144.06 42.7211 144.602 42.6361 145.007 42.5827C144.747 42.7602 144.212 42.9486 143.559 42.8246C142.707 43.0004 141.974 43.2293 142.225 43.4469C142.626 43.7926 144.235 44.3111 144.989 44.5271L146.238 45.8234L142.203 45.8234C139.984 45.8234 140.426 47.1196 140.925 47.7678C140.335 47.9118 138.803 48.1134 137.394 47.7678C135.633 47.3357 136.384 47.9838 133.356 48.1998C130.933 48.3727 92.2167 49.5518 88.0985 49.4798C88.4374 49.1917 88.6613 48.6156 86.8457 48.6156C84.5762 48.6156 84.324 48.6156 81.5461 49.0477C78.7682 49.4798 59.3551 49.0477 50.7813 49.0477L38.425 49.0477C34.4676 49.7678 25.0908 51.1649 19.242 50.9921C11.9311 50.776 5.64679 48.6156 5.64879 48.3996C5.65039 48.2267 4.31654 47.0313 3.64942 46.4552C4.31854 46.8152 5.65879 47.3193 5.66678 46.4552C5.67478 45.591 4.35319 43.0705 3.6914 41.9183L5.72875 39.758Z" fill="#FDA3C4"/>
<path d="M10.406 52.0723C9.5991 52.0723 9.55748 52.9365 9.63754 53.3685L7.99644 53.5846C7.19123 54.3047 5.73253 55.7018 6.33934 55.529C6.94615 55.3561 8.11053 54.8808 8.61687 54.6648C8.95576 54.3767 11.2474 53.8006 17.703 53.8006C25.7725 53.8006 25.0199 53.3685 25.7765 53.3685C26.533 53.3685 11.4147 52.0723 10.406 52.0723Z" fill="#FDA3C4"/>
</svg>
