<svg width="185" height="54" viewBox="0 0 185 54" fill="none" xmlns="http://www.w3.org/2000/svg">
<path d="M5.74333 38.3579L2.44026 33.3279L0.667448 13.2077C2.2784 10.3434 7.88993 4.44712 17.4485 3.77645C29.3966 2.93811 63.6728 0.91679 77.4001 1.12637C91.1274 1.33596 105.617 1.12637 110.447 1.12637C115.277 1.12637 164.957 -0.743867 171.311 2.39973C176.394 4.9146 181.053 9.73512 182.747 11.831C182.239 12.2501 181.526 13.5495 182.746 15.3938C183.965 17.2382 184.609 20.0745 184.778 21.2622C184.1 21.9608 182.743 23.5257 182.743 24.1964C182.743 25.0347 178.167 25.2443 180.454 26.2922C182.284 27.1306 182.741 29.5757 182.741 30.6935C180.961 31.7414 176.588 33.8792 173.334 34.0468C170.08 34.2145 167.233 34.955 166.216 35.3043L166.215 36.9811C167.74 37.2605 170.486 37.9032 169.265 38.2385C167.74 38.6577 166.215 37.6098 164.944 38.2385C163.672 38.8673 161.892 40.1248 163.418 40.5439C163.886 40.9302 164.344 41.1228 164.755 41.1978C165.26 41.0974 165.806 41.0149 166.214 40.9631C165.953 41.1353 165.415 41.318 164.755 41.1978C163.899 41.3683 163.161 41.5904 163.417 41.8015C163.824 42.1368 165.451 42.6398 166.213 42.8494L167.484 44.1069H163.416C161.179 44.1069 161.637 45.3644 162.145 45.9931C161.552 46.1329 160.009 46.3285 158.586 45.9931C156.806 45.574 157.569 46.2027 154.518 46.4123C152.078 46.58 113.059 47.7238 108.907 47.654C109.246 47.3745 109.466 46.8156 107.636 46.8156H107.636C105.348 46.8156 105.094 46.8156 102.297 47.2348C99.501 47.654 69.9289 47.2991 61.2858 47.2991C54.3713 47.2991 40.0588 47.3699 38.7877 47.3699C34.8048 48.0685 25.3647 49.4238 19.4671 49.2561C12.0951 49.0465 5.74048 46.9507 5.74055 46.7411C5.74061 46.5734 4.3852 45.4137 3.70749 44.8549C4.38527 45.2042 5.7409 45.6932 5.74118 44.8549C5.74146 44.0165 4.38648 41.5714 3.70895 40.4536L5.74333 38.3579Z" fill="#FDA3C4"/>
<path d="M10.5694 50.3041C9.7559 50.3041 9.72173 51.1424 9.80632 51.5616L8.15389 51.7711C7.34866 52.4698 5.89073 53.8251 6.5009 53.6574C7.11106 53.4897 8.28058 53.0286 8.78907 52.8191C9.12811 52.5396 11.4331 51.9807 17.9409 51.9807C26.0757 51.9807 25.3132 51.5616 26.0758 51.5616C26.8384 51.5616 11.5862 50.3041 10.5694 50.3041Z" fill="#FDA3C4"/>
</svg>
