<svg width="207" height="53" viewBox="0 0 207 53" fill="none" xmlns="http://www.w3.org/2000/svg">
<path d="M8.36727 37.2816L3.5356 32.3464L0.943438 12.6057C3.30023 9.79533 11.5096 4.01019 25.4926 3.35216C42.9713 2.52963 63.7975 0.678933 83.8788 0.884567C103.96 1.0902 134.566 0.514197 141.631 0.514197C148.697 0.514197 177.332 -0.102534 186.627 2.98179C194.064 5.44926 200.879 10.1789 203.357 12.2353C202.613 12.6465 201.571 13.9213 203.355 15.7309C205.139 17.5405 206.079 20.3234 206.327 21.4886C205.335 22.1741 203.35 23.7095 203.35 24.3675C203.349 25.19 196.656 25.3957 200.002 26.4238C202.679 27.2464 203.347 29.6454 203.346 30.7421C200.743 31.7703 194.345 33.8678 189.585 34.0323C184.825 34.1968 180.66 34.9233 179.172 35.2661L179.171 36.9113C181.402 37.1854 185.418 37.8159 183.633 38.1449C181.401 38.5562 179.171 37.528 177.311 38.1449C175.451 38.7618 172.847 39.9956 175.078 40.4069C175.763 40.7859 176.434 40.9749 177.035 41.0484C177.773 40.9499 178.571 40.869 179.169 40.8182C178.787 40.9871 178 41.1664 177.035 41.0484C175.782 41.2157 174.703 41.4336 175.078 41.6407C175.672 41.9697 178.052 42.4632 179.168 42.6689L181.026 43.9027H175.076C171.804 43.9027 172.472 45.1365 173.216 45.7534C172.348 45.8904 170.092 46.0824 168.01 45.7534C165.407 45.3421 166.522 45.959 162.059 46.1646C158.489 46.3291 145.449 46.2332 139.375 46.1646C139.871 45.8904 140.193 45.3421 137.516 45.3421C134.169 45.3421 133.797 45.3421 129.706 45.7534C125.615 46.1646 87.5724 46.1237 74.9286 46.1237H56.7065C50.8801 46.8092 37.0702 48.1389 28.4428 47.9744C17.6584 47.7688 8.36258 45.7125 8.3627 45.5068C8.36279 45.3423 6.38007 44.2045 5.3887 43.6561C6.38018 43.9988 8.36327 44.4787 8.36373 43.6561C8.36418 42.8336 6.38217 40.4345 5.3911 39.3378L8.36727 37.2816Z" fill="#FDA3C4"/>
<path d="M15.4264 49.0026C14.2364 49.0026 14.1864 49.8251 14.3101 50.2364L11.8928 50.442C10.7148 51.1275 8.58195 52.4572 9.47455 52.2927C10.3672 52.1282 12.078 51.6758 12.8219 51.4702C13.3179 51.196 16.6899 50.6476 26.21 50.6476C38.1101 50.6476 36.9947 50.2364 38.1103 50.2364C39.226 50.2364 16.914 49.0026 15.4264 49.0026Z" fill="#FDA3C4"/>
</svg>
