<svg width="63" height="35" viewBox="0 0 63 35" fill="none" xmlns="http://www.w3.org/2000/svg">
<path d="M4.63987 24.8198L1.98566 21.542L0.299853 8.43078C1.5146 6.56426 5.80722 2.72195 13.2597 2.28491C22.5753 1.73862 10.6662 0.683119 21.3866 0.819694C32.1069 0.956269 23.4389 1.68808 27.2098 1.68808C30.9807 1.68808 46.2535 1.27847 51.2615 3.32698C55.2679 4.96579 58.9775 8.10706 60.3315 9.47285C59.9408 9.74597 59.4042 10.5927 60.384 11.7945C61.3639 12.9964 61.9085 14.8447 62.0583 15.6186C61.5393 16.0739 60.5039 17.0936 60.5138 17.5307C60.5261 18.077 56.9568 18.2136 58.7585 18.8964C60.1998 19.4427 60.5931 21.0361 60.6095 21.7645C59.2357 22.4474 55.8536 23.8404 53.3157 23.9497C50.7777 24.059 48.5658 24.5415 47.7771 24.7692L47.8018 25.8618C48.9967 26.0439 51.1497 26.4627 50.202 26.6812C49.0173 26.9543 47.8111 26.2715 46.828 26.6812C45.8449 27.0909 44.4742 27.9104 45.6712 28.1835C46.0426 28.4352 46.4034 28.5608 46.7255 28.6096C47.1178 28.5442 47.5425 28.4904 47.8605 28.4567C47.6593 28.5689 47.2422 28.688 46.7255 28.6096C46.0593 28.7207 45.4867 28.8654 45.6897 29.003C46.0122 29.2215 47.2898 29.5493 47.8883 29.6859L48.8992 30.5053L45.7237 30.5053C43.9772 30.5053 44.3529 31.3248 44.7591 31.7345C44.2981 31.8255 43.0969 31.953 41.9806 31.7345C40.5851 31.4613 41.1898 31.8711 38.8113 32.0076C36.9085 32.1169 29.9474 32.0532 26.7048 32.0076C26.9653 31.8255 27.129 31.4613 25.7001 31.4613L25.7 31.4613C25.4674 31.4613 25.2617 31.4613 25.075 31.4619C22.8947 31.6863 20.5366 31.8602 21.5384 31.7345C23.4318 31.4969 23.8286 31.466 25.075 31.4619C27.6326 31.1987 29.9456 30.8661 26.3029 30.8661C20.9046 30.8661 21.5658 30.6924 20.5735 30.6924C17.4745 31.1477 20.1247 32.0308 15.5177 31.9216C9.75909 31.785 4.76651 30.4193 4.76342 30.2827C4.76095 30.1734 3.68537 29.4177 3.14788 29.0535C3.68228 29.2811 4.74798 29.5998 4.73562 29.0535C4.72327 28.5072 3.62874 26.9138 3.08302 26.1854L4.63987 24.8198Z" fill="#FDA3C4"/>
<path d="M8.58682 32.6045C7.95173 32.6045 7.93762 33.1508 8.00995 33.4239L6.723 33.5605C6.10482 34.0157 4.98691 34.8989 5.46076 34.7897C5.93461 34.6804 6.84077 34.3799 7.23461 34.2434C7.49512 34.0613 9.28632 33.6971 14.3671 33.6971C20.7181 33.6971 20.1165 33.4239 20.7119 33.4239C21.3073 33.4239 9.38069 32.6045 8.58682 32.6045Z" fill="#FDA3C4"/>
</svg>
