<svg width="83" height="35" viewBox="0 0 83 35" fill="none" xmlns="http://www.w3.org/2000/svg">
<path d="M5.61879 24.4065L2.34419 21.0463L0.530022 7.60559C2.1098 5.69216 7.62601 1.75329 17.0527 1.30527C28.836 0.745242 12.8965 0.539122 26.4382 0.679129C39.9799 0.819136 46.2789 0.960181 51.0434 0.960181C55.8079 0.960181 63.124 0.961852 69.4022 3.06184C74.4247 4.74184 79.0361 7.96206 80.714 9.36217C80.2137 9.64215 79.5154 10.5101 80.7244 11.7422C81.9334 12.9743 82.577 14.869 82.7477 15.6624C82.081 16.1291 80.7482 17.1745 80.7501 17.6225C80.7526 18.1825 76.2395 18.3225 78.4994 19.0226C80.3074 19.5826 80.7659 21.216 80.7691 21.9627C79.0169 22.6628 74.7101 24.0908 71.5008 24.2028C68.2916 24.3148 65.4852 24.8095 64.4832 25.0429L64.4881 26.163C65.9935 26.3497 68.7036 26.779 67.5009 27.003C65.9976 27.283 64.4899 26.583 63.238 27.003C61.986 27.423 62.2328 28.1928 63.7386 28.4728C64.045 28.6435 64.218 28.7621 64.3123 28.841C64.3711 28.8347 64.4336 28.8288 64.4997 28.8231C64.4312 28.8537 64.3972 28.883 64.3829 28.9076C64.3397 28.9817 64.4763 29.0125 64.3829 28.9076C64.3669 28.8896 64.344 28.8675 64.3123 28.841C63.4063 28.9376 63.3646 29.1025 63.7423 29.3128C64.1445 29.5368 63.7524 29.9431 64.5053 30.0831L67.7612 30.8529H63.749C61.5423 30.8529 61.9974 31.693 62.5007 32.113C61.916 32.2063 60.3953 32.337 58.9901 32.113C57.2335 31.833 57.9877 32.253 54.9791 32.393C52.5723 32.505 53.7709 32.0883 49.6749 32.0417C50.0084 31.855 50.2241 31.4816 48.4186 31.4816C46.1618 31.4816 47.9095 31.4114 45.1523 31.6914C42.3952 31.9714 53.0619 30.6375 44.536 30.6375C37.7153 30.6375 39.4979 30.4267 38.2441 30.4267C34.3175 30.8934 25.0099 31.7987 19.1918 31.6867C11.9191 31.5467 5.64393 30.1467 5.64331 30.0067C5.64282 29.8946 4.30204 29.1199 3.63171 28.7466C4.30143 28.9799 5.64025 29.3066 5.6378 28.7466C5.63534 28.1866 4.2908 26.5531 3.61884 25.8064L5.61879 24.4065Z" fill="#FDA3C4"/>
<path d="M10.4182 32.3868C9.61575 32.3868 9.58477 32.9468 9.66958 33.2268L8.04025 33.3668C7.24822 33.8335 5.81449 34.7389 6.41582 34.6269C7.01716 34.5149 8.16931 34.2069 8.67022 34.0669C9.00375 33.8802 11.2757 33.5068 17.6952 33.5068C25.7195 33.5068 24.966 33.2268 25.7183 33.2268C26.4706 33.2268 11.4212 32.3868 10.4182 32.3868Z" fill="#FDA3C4"/>
</svg>
