<svg width="95" height="35" viewBox="0 0 95 35" fill="none" xmlns="http://www.w3.org/2000/svg">
<path d="M5.6794 24.5403L2.43162 21.2508L0.78818 8.09271C2.40259 6.21951 8.00283 2.36346 17.4885 1.92486C29.3456 1.3766 33.4846 0.433019 47.1005 0.570082C60.7165 0.707146 54.096 0.85565 58.8873 0.85565C63.6785 0.85565 74.9925 0.734503 81.2778 2.79034C86.306 4.43502 90.8999 7.58753 92.5684 8.9582C92.0615 9.2323 91.3476 10.082 92.5468 11.2882C93.7461 12.4944 94.3677 14.3493 94.5287 15.126C93.852 15.5828 92.4976 16.6063 92.4936 17.0449C92.4885 17.5931 87.9482 17.7302 90.2113 18.4155C92.0219 18.9637 92.461 20.5628 92.4542 21.2938C90.6827 21.9791 86.3325 23.3772 83.1037 23.4868C79.8749 23.5965 77.0461 24.0808 76.0353 24.3092L76.0251 25.4058C77.5365 25.5885 80.256 26.0088 79.0436 26.2281C77.528 26.5022 76.0213 25.8169 74.7567 26.2281C73.492 26.6393 71.7192 27.4617 73.2297 27.7358C73.6921 27.9884 74.1457 28.1144 74.5531 28.1634C75.054 28.0977 75.5957 28.0438 76.001 28.0099C75.7411 28.1225 75.2067 28.242 74.5531 28.1634C73.7024 28.2749 72.9694 28.4202 73.2221 28.5582C73.6235 28.7775 75.2344 29.1064 75.9896 29.2435L77.2429 30.0659H73.2081C70.989 30.0659 71.4353 30.8883 71.9359 31.2995C71.3466 31.3908 69.8156 31.5188 68.4055 31.2995C66.6429 31.0253 67.3956 31.4365 64.3683 31.5736C61.9464 31.6832 61.2111 31.3293 57.0927 31.2837C57.4306 31.1009 65.6481 30.4674 63.8325 30.4674H63.8324C61.5629 30.4674 61.3107 30.4674 58.5343 30.7415C55.7579 31.0156 49.3432 30.724 40.7694 30.724C33.9104 30.724 39.6679 30.434 38.407 30.434C34.4521 30.8909 25.08 31.7772 19.2307 31.6675C11.919 31.5305 5.62741 30.1598 5.62867 30.0228C5.62969 29.9131 4.2918 29.1547 3.62272 28.7892C4.29306 29.0177 5.63502 29.3375 5.64009 28.7892C5.64516 28.241 4.31505 26.6419 3.64936 25.9109L5.6794 24.5403Z" fill="#FDA3C4"/>
<path d="M10.3984 32.3529C9.59141 32.3529 9.55271 32.9011 9.63423 33.1752L7.99386 33.3123C7.19109 33.7692 5.73711 34.6555 6.34333 34.5459C6.94956 34.4362 8.11233 34.1347 8.61794 33.9976C8.95586 33.8149 11.2456 33.4494 17.7011 33.4494C25.7706 33.4494 25.0166 33.1752 25.7731 33.1752C26.5297 33.1752 11.407 32.3529 10.3984 32.3529Z" fill="#FDA3C4"/>
</svg>
