<svg width="101" height="35" viewBox="0 0 101 35" fill="none" xmlns="http://www.w3.org/2000/svg">
<path d="M5.68576 24.5052L2.38211 21.2207L0.606988 8.08288C2.21761 6.21256 7.82846 2.36244 17.3869 1.92451C29.335 1.3771 43.6251 0.757377 57.3524 0.89423C71.0797 1.03108 45.5983 2.03297 50.4283 2.03297C55.2583 2.03297 80.9543 1.66263 87.3089 3.71531C92.3926 5.35745 97.052 8.50511 98.7463 9.87368C98.2378 10.1474 97.5257 10.9958 98.7455 12.2001C99.9654 13.4044 100.609 15.2565 100.778 16.032C100.1 16.4881 98.7438 17.51 98.7436 17.9479C98.7435 18.4953 94.1676 18.6322 96.4553 19.3164C98.2854 19.8638 98.7425 21.4604 98.7422 22.1903C96.9625 22.8746 92.5897 24.2705 89.3357 24.38C86.0818 24.4894 83.2345 24.973 82.2176 25.2011L82.2172 26.296C83.7424 26.4784 86.4877 26.8981 85.2675 27.117C83.7421 27.3907 82.2171 26.7065 80.9459 27.117C79.6747 27.5276 77.8949 28.3487 79.4201 28.6224C79.8885 28.8746 80.347 29.0004 80.7581 29.0493C81.2625 28.9838 81.8081 28.9299 82.2163 28.8961C81.9553 29.0085 81.4177 29.1278 80.7581 29.0493C79.9015 29.1607 79.1639 29.3057 79.4198 29.4435C79.8265 29.6625 81.4533 29.9909 82.2159 30.1278L83.4867 30.9489H79.4193C77.1823 30.9489 81.6367 31.6193 82.145 32.0298C81.5518 32.1211 80.0096 32.2488 78.5861 32.0298C76.8067 31.7561 77.5692 32.1667 74.5186 32.3035C72.0782 32.413 53.0451 32.4598 48.893 32.4142C49.232 32.2317 49.4524 31.8668 47.6221 31.8668C45.977 31.8668 55.7161 31.5324 60.2792 31.4463C58.8967 31.2317 57.2758 30.7204 51.2363 30.7204C44.3218 30.7204 40.0022 30.3898 38.7312 30.3898C34.7484 30.846 25.3084 31.7309 19.4108 31.6215C12.0387 31.4846 5.6839 30.1161 5.68395 29.9792C5.68398 29.8697 4.32845 29.1125 3.65067 28.7475C4.32849 28.9756 5.68417 29.295 5.68436 28.7475C5.68454 28.2001 4.32928 26.6035 3.65162 25.8736L5.68576 24.5052Z" fill="#FDA3C4"/>
<path d="M10.5132 32.3057C9.6997 32.3057 9.66563 32.8531 9.75027 33.1268L8.09786 33.2637C7.29271 33.7199 5.83494 34.6048 6.44508 34.4954C7.05522 34.3859 8.22469 34.0848 8.73316 33.948C9.07217 33.7655 11.3771 33.4005 17.8849 33.4005C26.0196 33.4005 25.2571 33.1268 26.0197 33.1268C26.7824 33.1268 11.53 32.3057 10.5132 32.3057Z" fill="#FDA3C4"/>
</svg>
