<?xml version="1.0" standalone="no"?>
<!DOCTYPE svg PUBLIC "-//W3C//DTD SVG 20010904//EN"
 "http://www.w3.org/TR/2001/REC-SVG-20010904/DTD/svg10.dtd">
<svg version="1.0" xmlns="http://www.w3.org/2000/svg"
 width="250.000000pt" height="250.000000pt" viewBox="0 0 250.000000 250.000000"
 preserveAspectRatio="xMidYMid meet">
<metadata>
Created by potrace 1.14, written by Peter Selinger 2001-2017
</metadata>
<g transform="translate(0.000000,250.000000) scale(0.100000,-0.100000)"
fill="#000000" stroke="none">
<path d="M635 2235 c-78 -19 -101 -31 -144 -75 -96 -99 -114 -243 -57 -460 18
-66 71 -192 141 -333 l23 -48 -29 -6 c-34 -6 -109 -85 -109 -114 0 -10 -5 -21
-11 -24 -6 -4 -8 -26 -4 -58 9 -77 14 -89 52 -129 29 -30 47 -38 100 -48 62
-12 66 -12 118 15 50 25 75 27 75 5 0 -16 192 -303 254 -380 82 -102 167 -192
250 -268 41 -37 82 -56 99 -45 6 4 20 8 30 8 21 2 46 33 47 58 0 9 5 17 10 17
6 0 10 9 10 20 0 11 5 20 10 20 6 0 10 8 10 19 0 10 7 24 15 31 8 7 15 19 15
26 0 8 5 14 10 14 6 0 10 5 10 11 0 12 75 129 107 166 46 55 53 64 53 73 0 5
6 13 13 17 7 4 22 20 32 34 11 15 63 80 115 145 172 216 238 312 222 329 -4 4
0 6 9 3 9 -4 21 -3 28 1 35 22 151 -29 151 -66 0 -7 6 -13 13 -13 8 0 7 -3 -3
-9 -8 -6 -18 -7 -23 -4 -4 3 -35 6 -67 7 -33 1 -55 -1 -50 -4 5 -3 -8 -23 -30
-44 -68 -65 -66 -149 5 -199 38 -27 135 -29 163 -3 10 9 23 16 28 16 15 1 71
83 76 112 3 17 0 32 -8 39 -8 6 -14 26 -14 43 0 18 -7 41 -15 52 -8 10 -15 27
-15 37 0 10 -5 15 -10 12 -6 -3 -10 -1 -10 5 0 13 -51 64 -76 75 -11 5 -35 10
-54 11 -63 3 -63 3 -52 17 6 7 18 46 28 87 30 135 10 266 -62 396 -28 52 -148
174 -169 174 -8 0 -15 3 -17 8 -1 4 -25 18 -53 31 -64 31 -210 38 -283 13
-105 -35 -192 -119 -248 -239 -28 -59 -44 -78 -44 -50 0 20 -75 160 -116 218
-48 66 -74 93 -143 147 -115 92 -285 136 -406 107z m49 -1072 c32 -62 62 -113
67 -113 6 0 -3 -12 -20 -26 -62 -52 -143 -51 -196 1 -39 40 -48 83 -29 146 15
51 48 86 90 98 16 4 30 8 30 7 1 -1 27 -52 58 -113z m1607 -64 c49 -35 55 -57
23 -90 -43 -45 -90 -63 -125 -49 -54 23 -70 63 -43 106 35 53 97 67 145 33z"/>
<path d="M113 1503 c-9 -3 -10 -42 -6 -148 6 -140 -8 -288 -28 -301 -9 -5 -1
-85 10 -97 4 -4 20 -3 34 2 15 6 37 7 49 3 57 -18 146 5 189 50 30 33 41 65
40 130 0 115 -82 173 -184 130 -36 -15 -47 -15 -49 1 0 6 -2 17 -3 22 -2 6 -3
47 -4 91 -1 62 -5 87 -18 102 -10 11 -23 18 -30 15z m203 -286 c36 -31 45
-120 16 -153 -32 -38 -96 -60 -158 -56 -21 2 -22 6 -17 69 6 75 20 104 72 139
44 30 53 30 87 1z"/>
</g>
</svg>
