<svg width="24" height="24" viewBox="0 0 24 24" fill="none" xmlns="http://www.w3.org/2000/svg">
<path d="M3 6.25C3 5.38805 3.34241 4.5614 3.9519 3.9519C4.5614 3.34241 5.38805 3 6.25 3H17.749C18.611 3 19.4376 3.34241 20.0471 3.9519C20.6566 4.5614 20.999 5.38805 20.999 6.25V11.011C20.4887 10.9667 19.9751 11.042 19.499 11.231V10H15.499V14H16.354L13.999 16.355V15.5H9.999V19.5H11.54C11.5331 19.5253 11.5264 19.5506 11.52 19.576L11.164 20.999H6.25C5.82312 20.999 5.40042 20.9149 5.00605 20.7515C4.61167 20.5881 4.25335 20.3486 3.95155 20.0467C3.64975 19.7448 3.41037 19.3865 3.2471 18.992C3.08384 18.5976 2.99987 18.1749 3 17.748V6.25ZM6.25 4.5C5.78587 4.5 5.34075 4.68437 5.01256 5.01256C4.68437 5.34075 4.5 5.78587 4.5 6.25V8.5H8.5V4.5H6.25ZM4.5 10V13.999H8.5V9.999H4.5V10ZM10 10V13.999H13.999V9.999H9.999L10 10ZM15.499 8.5H19.499V6.25C19.499 5.78587 19.3146 5.34075 18.9864 5.01256C18.6582 4.68437 18.2131 4.5 17.749 4.5H15.499V8.5ZM13.999 4.5H9.999V8.5H13.999V4.5ZM4.499 15.499V17.749C4.499 18.715 5.283 19.499 6.249 19.499H8.5V15.499H4.5H4.499ZM19.765 12.205C19.5166 12.3183 19.2906 12.4755 19.098 12.669L13.197 18.57C12.8525 18.9142 12.6081 19.3456 12.49 19.818L12.033 21.648C11.833 22.445 12.555 23.166 13.351 22.967L15.181 22.509C15.6533 22.3911 16.0847 22.1471 16.429 21.803L22.33 15.9C22.709 15.5211 22.9428 15.0211 22.9906 14.4873C23.0384 13.9535 22.8972 13.4199 22.5915 12.9797C22.2859 12.5395 21.8353 12.2206 21.3185 12.0788C20.8017 11.937 20.2515 11.9813 19.764 12.204L19.765 12.205Z" fill="#FDA3C4"/>
</svg>
