<svg width="134" height="56" viewBox="0 0 134 56" fill="none" xmlns="http://www.w3.org/2000/svg">
<path d="M5.99008 39.3897L2.70721 34.1417L0.859979 13.1495C2.43505 10.161 7.94157 4.00912 17.3671 3.30938C29.149 2.43471 43.183 0.466687 56.7251 0.685356C70.2671 0.904025 84.5595 0.685356 89.324 0.685356C94.0884 0.685356 113.394 0.0295283 119.678 3.30938C124.704 5.93327 129.324 10.9627 131.005 13.1495C130.505 13.5868 129.809 14.9424 131.021 16.8667C132.233 18.791 132.881 21.7503 133.054 22.9894C132.389 23.7183 131.058 25.3511 131.061 26.0508C131.065 26.9255 126.552 27.1442 128.814 28.2375C130.623 29.1122 131.086 31.6633 131.091 32.8295C129.34 33.9229 125.037 36.1533 121.828 36.3282C118.619 36.5032 115.814 37.2758 114.813 37.6403L114.82 39.3897C116.326 39.6813 119.037 40.3518 117.835 40.7016C116.332 41.139 114.823 40.0456 113.572 40.7016C112.321 41.3576 110.572 42.6696 112.078 43.107C112.542 43.51 112.995 43.711 113.401 43.7892C113.898 43.6844 114.436 43.5983 114.838 43.5443C114.582 43.7239 114.052 43.9146 113.401 43.7892C112.557 43.967 111.83 44.1988 112.084 44.419C112.487 44.7689 114.094 45.2937 114.847 45.5123L116.107 46.8244H112.094C109.888 46.8244 110.345 48.1364 110.849 48.7924C110.265 48.9381 108.744 49.1422 107.339 48.7924C105.581 48.355 106.337 49.011 103.328 49.2297C100.922 49.4046 92.128 49.3026 88.0319 49.2297C88.365 48.9381 88.5798 48.355 86.7743 48.355C84.5175 48.355 84.2667 48.355 81.5103 48.7924C78.7538 49.2297 59.4433 48.7924 50.9174 48.7924H38.6302C34.7048 49.5213 25.3994 50.9353 19.5809 50.7604C12.3079 50.5417 6.02933 48.355 6.02837 48.1364C6.0276 47.9614 4.68492 46.7515 4.01367 46.1683C4.68396 46.5328 6.02358 47.043 6.01975 46.1683C6.01593 45.2937 4.66737 42.7425 3.99356 41.5763L5.99008 39.3897Z" fill="#FDA3C4"/>
<path d="M10.8091 51.8537C10.0067 51.8537 9.97706 52.7284 10.0626 53.1658L8.43357 53.3844C7.64269 54.1133 6.21119 55.5274 6.81225 55.3524C7.41331 55.1775 8.5647 54.6964 9.06526 54.4778C9.39834 54.1862 11.6693 53.6031 18.0888 53.6031C26.1132 53.6031 25.359 53.1658 26.1113 53.1658C26.8635 53.1658 11.8121 51.8537 10.8091 51.8537Z" fill="#FDA3C4"/>
</svg>
