<svg width="106" height="56" viewBox="0 0 106 56" fill="none" xmlns="http://www.w3.org/2000/svg">
<path d="M5.27546 39.1232L2.57678 33.8789L0.713076 12.9021C1.9025 9.91577 6.14298 3.76838 13.5896 3.06915C22.8978 2.19511 33.9675 0.228527 44.6897 0.447036C55.4119 0.665545 66.7196 0.447036 70.4905 0.447036C74.2613 0.447036 89.5285 -0.208313 94.5643 3.06915C98.593 5.69111 102.345 10.7169 103.718 12.9021C103.331 13.339 102.806 14.6937 103.802 16.6166C104.798 18.5395 105.368 21.4966 105.528 22.7348C105.015 23.4632 103.994 25.0947 104.009 25.794C104.029 26.668 100.462 26.8865 102.273 27.9791C103.721 28.8531 104.136 31.4024 104.163 32.5678C102.798 33.6603 99.4347 35.8891 96.8983 36.0639C94.3619 36.2387 92.1565 37.0108 91.3709 37.375L91.4104 39.1232C92.6078 39.4145 94.7664 40.0845 93.8217 40.4341C92.6407 40.8711 91.4252 39.7786 90.4477 40.4341C89.4702 41.0896 88.1106 42.4007 89.3113 42.8377C89.6861 43.2404 90.0487 43.4412 90.3714 43.5194C90.7628 43.4147 91.1868 43.3287 91.5043 43.2747C91.3046 43.4542 90.8892 43.6447 90.3714 43.5194C89.7067 43.6971 89.1361 43.9287 89.3409 44.1487C89.6664 44.4984 90.9484 45.0228 91.5488 45.2413L92.5708 46.5523H89.3953C87.6488 46.5523 88.0357 47.8634 88.4474 48.5189C87.9876 48.6646 86.7882 48.8685 85.6689 48.5189C84.2697 48.0819 84.88 48.7374 82.5033 48.9559C80.6019 49.1308 73.64 49.0288 70.3968 48.9559C70.6548 48.6646 70.8136 48.0819 69.3847 48.0819C67.5984 48.0819 67.4 48.0819 65.2267 48.5189C63.0535 48.9559 47.7616 48.5189 41.0137 48.5189H31.2888C28.1959 49.2473 20.8581 50.6603 16.2497 50.4855C10.4892 50.267 5.47808 48.0819 5.47314 47.8634C5.46918 47.6886 4.38334 46.4795 3.84092 45.8968C4.3784 46.261 5.44843 46.7709 5.42866 45.8968C5.40889 45.0228 4.29274 42.4735 3.73714 41.3081L5.27546 39.1232Z" fill="#FDA3C4"/>
<path d="M9.32804 51.5781C8.69294 51.5781 8.68624 52.4521 8.76228 52.8891L7.47719 53.1076C6.86518 53.836 5.75926 55.249 6.23162 55.0742C6.70399 54.8994 7.60607 54.4187 7.99807 54.2002C8.2561 53.9088 10.0424 53.3261 15.1231 53.3261C21.4741 53.3261 20.8688 52.8891 21.4642 52.8891C22.0596 52.8891 10.1219 51.5781 9.32804 51.5781Z" fill="#FDA3C4"/>
</svg>
