<svg width="186" height="54" viewBox="0 0 186 54" fill="none" xmlns="http://www.w3.org/2000/svg">
<path d="M6.02385 38.2329L2.72078 33.2028L0.947965 13.0827C2.55891 10.2184 8.17044 4.32212 17.729 3.65145C29.6771 2.81311 63.9533 0.79179 77.6806 1.00137C91.4079 1.21096 105.898 1.00137 110.728 1.00137C115.558 1.00137 165.237 -0.868867 171.591 2.27473C176.675 4.7896 181.334 9.61012 183.028 11.706C182.519 12.1251 181.807 13.4245 183.026 15.2688C184.246 17.1132 184.889 19.9495 185.058 21.1372C184.38 21.8358 183.024 23.4007 183.023 24.0714C183.023 24.9097 178.447 25.1193 180.735 26.1672C182.565 27.0056 183.022 29.4507 183.021 30.5685C181.242 31.6164 176.868 33.7542 173.614 33.9218C170.361 34.0895 167.513 34.83 166.496 35.1793L166.496 36.8561C168.021 37.1355 170.766 37.7782 169.546 38.1135C168.02 38.5327 166.495 37.4848 165.224 38.1135C163.953 38.7423 162.173 39.9998 163.698 40.4189C164.166 40.8052 164.625 40.9978 165.036 41.0728C165.54 40.9724 166.086 40.8899 166.494 40.8381C166.233 41.0103 165.696 41.193 165.036 41.0728C164.179 41.2433 163.442 41.4654 163.698 41.6765C164.104 42.0118 165.731 42.5148 166.494 42.7244L167.764 43.9819H163.697C161.46 43.9819 161.917 45.2394 162.425 45.8681C161.832 46.0079 160.29 46.2035 158.866 45.8681C157.087 45.449 157.849 46.0777 154.799 46.2873C152.358 46.455 113.339 47.5988 109.187 47.529C109.526 47.2495 109.747 46.6906 107.916 46.6906H107.916C105.629 46.6906 105.374 46.6906 102.578 47.1098C99.7815 47.529 70.2095 47.1741 61.5663 47.1741C54.6518 47.1741 40.3393 47.2449 39.0682 47.2449C35.0854 47.9435 25.6452 49.2988 19.7476 49.1311C12.3756 48.9215 6.021 46.8257 6.02107 46.6161C6.02113 46.4484 4.66572 45.2887 3.98801 44.7299C4.66579 45.0792 6.02142 45.5682 6.0217 44.7299C6.02197 43.8915 4.66699 41.4464 3.98947 40.3286L6.02385 38.2329Z" fill="#FDA3C4"/>
<path d="M10.8499 50.179C10.0364 50.179 10.0022 51.0174 10.0868 51.4366L8.4344 51.6461C7.62917 52.3448 6.17125 53.7001 6.78141 53.5324C7.39157 53.3647 8.56109 52.9036 9.06958 52.6941C9.40862 52.4146 11.7136 51.8557 18.2214 51.8557C26.3562 51.8557 25.5937 51.4366 26.3563 51.4366C27.1189 51.4366 11.8667 50.179 10.8499 50.179Z" fill="#FDA3C4"/>
</svg>
