<svg width="163" height="55" viewBox="0 0 163 55" fill="none" xmlns="http://www.w3.org/2000/svg">
<path d="M4.95873 39.0861L1.72849 33.9011L0.155204 13.161C1.7796 10.2084 7.4004 4.13037 16.8884 3.43903C28.7484 2.57486 42.888 0.630472 56.5032 0.846515C70.1184 1.06256 84.4941 0.846515 89.2853 0.846515C94.0766 0.846515 143.374 -1.08136 149.648 2.15911C154.668 4.75148 159.245 9.72055 160.906 11.881C160.398 12.3131 159.679 13.6525 160.872 15.5536C162.065 17.4548 162.677 20.3786 162.834 21.6028C162.155 22.323 160.795 23.9361 160.788 24.6274C160.78 25.4916 156.239 25.7076 158.499 26.7879C160.306 27.652 160.737 30.1725 160.726 31.3248C158.951 32.405 154.593 34.6086 151.364 34.7815C148.135 34.9543 145.303 35.7176 144.291 36.0777L144.275 37.8062C145.786 38.0942 148.503 38.7566 147.289 39.1023C145.772 39.5344 144.269 38.4542 143.002 39.1023C141.736 39.7504 139.958 41.0467 141.467 41.4788C141.928 41.8769 142.381 42.0755 142.789 42.1528C143.29 42.0493 143.832 41.9642 144.237 41.9109C143.977 42.0883 143.442 42.2767 142.789 42.1528C141.937 42.3285 141.203 42.5575 141.455 42.775C141.856 43.1207 143.465 43.6392 144.219 43.8552L145.468 45.1515L141.433 45.1515C139.214 45.1515 139.656 46.4478 140.155 47.0959C139.565 47.2399 138.033 47.4416 136.624 47.0959C134.863 46.6638 135.614 47.3119 132.585 47.528C130.163 47.7008 91.4466 48.8799 87.3285 48.8079C87.6674 48.5198 87.8913 47.9437 86.0757 47.9437C83.8061 47.9437 83.554 47.9437 80.7761 48.3758C77.9982 48.8079 58.5851 48.3758 50.0113 48.3758L37.6549 48.3758C33.6976 49.096 24.3207 50.493 18.472 50.3202C11.161 50.1042 4.87677 47.9437 4.87877 47.7277C4.88037 47.5549 3.54652 46.3594 2.8794 45.7833C3.54852 46.1434 4.88877 46.6475 4.89676 45.7833C4.90476 44.9191 3.58317 42.3986 2.92138 41.2464L4.95873 39.0861Z" fill="#FDA3C4"/>
<path d="M9.63603 51.4004C8.82908 51.4004 8.78747 52.2646 8.86752 52.6967L7.22642 52.9127C6.42121 53.6329 4.96251 55.0299 5.56932 54.8571C6.17613 54.6843 7.34051 54.209 7.84685 53.9929C8.18574 53.7049 10.4774 53.1288 16.933 53.1288C25.0024 53.1288 24.2499 52.6967 25.0064 52.6967C25.7629 52.6967 10.6447 51.4004 9.63603 51.4004Z" fill="#FDA3C4"/>
</svg>
