<svg width="135" height="56" viewBox="0 0 135 56" fill="none" xmlns="http://www.w3.org/2000/svg">
<path d="M6.11543 39.2742L2.76944 34.0772L0.772057 13.2893C2.34242 10.33 7.85978 4.23797 17.3663 3.54504C29.2496 2.67888 43.3983 0.730014 57.0645 0.946554C70.7308 1.16309 85.1514 0.946554 89.959 0.946554C94.7667 0.946554 114.243 0.29711 120.605 3.54504C125.693 6.14338 130.387 11.1239 132.097 13.2893C131.596 13.7224 130.902 15.0648 132.137 16.9704C133.372 18.876 134.045 21.8065 134.227 23.0335C133.56 23.7553 132.229 25.3722 132.236 26.0651C132.245 26.9313 127.693 27.1478 129.982 28.2305C131.814 29.0967 132.297 31.623 132.309 32.7778C130.55 33.8605 126.221 36.0693 122.984 36.2425C119.748 36.4157 116.922 37.1808 115.914 37.5417L115.933 39.2742C117.454 39.5629 120.194 40.2268 118.983 40.5733C117.47 41.0064 115.94 39.9237 114.681 40.5733C113.423 41.2229 111.666 42.5222 113.189 42.9552C113.66 43.3543 114.118 43.5533 114.528 43.6308C115.029 43.527 115.571 43.4418 115.977 43.3883C115.719 43.5662 115.186 43.755 114.528 43.6308C113.678 43.8069 112.946 44.0364 113.203 44.2545C113.612 44.6009 115.237 45.1206 115.998 45.3372L117.278 46.6364H113.229C111.002 46.6364 111.472 47.9357 111.985 48.5853C111.396 48.7296 109.864 48.9317 108.443 48.5853C106.667 48.1522 107.433 48.8018 104.399 49.0184C101.972 49.1916 93.0975 49.0905 88.9638 49.0184C89.298 48.7296 89.511 48.1522 87.6892 48.1522C85.4119 48.1522 85.1588 48.1522 82.3802 48.5853C79.6015 49.0184 60.1131 48.5853 51.5099 48.5853H39.1112C35.1549 49.3071 25.7741 50.7074 19.9018 50.5341C12.5614 50.3176 6.21201 48.1522 6.20966 47.9357C6.20777 47.7624 4.84522 46.5642 4.16418 45.9868C4.84286 46.3477 6.19788 46.853 6.18846 45.9868C6.17903 45.1206 4.80203 42.5943 4.11471 41.4395L6.11543 39.2742Z" fill="#FDA3C4"/>
<path d="M11.0574 51.6168C10.2477 51.6168 10.2233 52.483 10.3124 52.9161L8.67002 53.1326C7.8766 53.8544 6.4411 55.2547 7.0465 55.0815C7.6519 54.9083 8.81068 54.4319 9.31439 54.2153C9.64863 53.9266 11.9365 53.3492 18.4142 53.3492C26.5113 53.3492 25.7475 52.9161 26.5066 52.9161C27.2657 52.9161 12.0695 51.6168 11.0574 51.6168Z" fill="#FDA3C4"/>
</svg>
