<svg width="206" height="53" viewBox="0 0 206 53" fill="none" xmlns="http://www.w3.org/2000/svg">
<path d="M8.3244 37.6449L3.50774 32.7097L0.923663 12.9689C3.27314 10.1586 11.457 4.37347 25.3966 3.71545C42.821 2.89291 63.5826 1.04221 83.6015 1.24785C103.62 1.45348 134.131 0.877478 141.175 0.877478C148.218 0.877478 176.765 0.260747 186.031 3.34508C193.444 5.81254 200.238 10.5422 202.708 12.5986C201.967 13.0098 200.928 14.2846 202.706 16.0942C204.485 17.9038 205.422 20.6867 205.669 21.8519C204.68 22.5374 202.702 24.0728 202.702 24.7308C202.701 25.5533 196.028 25.759 199.364 26.7871C202.033 27.6097 202.699 30.0087 202.698 31.1054C200.102 32.1336 193.725 34.231 188.979 34.3955C184.234 34.5601 180.082 35.2866 178.598 35.6293L178.598 37.2745C180.822 37.5487 184.825 38.1792 183.046 38.5082C180.821 38.9195 178.597 37.8913 176.743 38.5082C174.889 39.1251 172.294 40.3589 174.518 40.7702C175.201 41.1491 175.869 41.3382 176.469 41.4117C177.204 41.3132 178 41.2322 178.595 41.1814C178.215 41.3503 177.431 41.5297 176.469 41.4117C175.22 41.579 174.144 41.7969 174.517 42.004C175.11 42.333 177.482 42.8265 178.594 43.0321L180.447 44.2659H174.516C171.253 44.2659 171.92 45.4997 172.661 46.1166C171.796 46.2537 169.547 46.4456 167.471 46.1166C164.876 45.7054 165.988 46.3223 161.539 46.5279C157.98 46.6924 144.98 46.5964 138.925 46.5279C139.419 46.2537 139.741 45.7054 137.072 45.7054C133.735 45.7054 133.365 45.7054 129.286 46.1166C125.208 46.5279 87.2836 46.487 74.679 46.487H56.5135C50.7051 47.1724 36.9382 48.5022 28.3375 48.3377C17.5866 48.1321 8.31971 46.0757 8.31982 45.8701C8.31991 45.7056 6.34336 44.5678 5.35506 44.0194C6.34347 44.3621 8.32039 44.8419 8.32085 44.0194C8.32131 43.1969 6.34545 40.7978 5.35747 39.7011L8.3244 37.6449Z" fill="#FDA3C4"/>
<path d="M15.3616 49.3659C14.1753 49.3659 14.1254 50.1884 14.2488 50.5997L11.8389 50.8053C10.6646 51.4907 8.53839 52.8205 9.42821 52.656C10.318 52.4915 12.0236 52.0391 12.7652 51.8335C13.2596 51.5593 16.6212 51.0109 26.1117 51.0109C37.9748 51.0109 36.8629 50.5997 37.9751 50.5997C39.0872 50.5997 16.8445 49.3659 15.3616 49.3659Z" fill="#FDA3C4"/>
</svg>
